<?xml version="1.0" encoding="utf-8"?>
<!-- Generator: Adobe Illustrator 16.0.0, SVG Export Plug-In . SVG Version: 6.00 Build 0)  -->
<!DOCTYPE svg PUBLIC "-//W3C//DTD SVG 1.1//EN" "http://www.w3.org/Graphics/SVG/1.1/DTD/svg11.dtd">
<svg version="1.1" id="Layer_1" xmlns="http://www.w3.org/2000/svg" xmlns:xlink="http://www.w3.org/1999/xlink" x="0px" y="0px"
	 width="200px" height="200px" viewBox="0 0 200 200" enable-background="new 0 0 200 200" xml:space="preserve">
	<g id="meter">
		<path fill="#EEEDED" d="M99.633,67.217c26.466,0,47.922,21.455,47.922,47.923h36.939c0-46.868-37.994-84.862-84.862-84.862
				S14.771,68.271,14.771,115.14h36.94C51.711,88.672,73.167,67.217,99.633,67.217z"/>
		<path fill="#EEEDED" d="M62.972,112.92c0,1.227-0.994,2.22-2.219,2.22l0,0c-1.225,0-2.218-0.993-2.218-2.22v-0.295
			c0-1.226,0.993-2.219,2.218-2.219l0,0c1.225,0,2.219,0.993,2.219,2.219V112.92z"/>
		<path fill="#EEEDED" d="M81.178,81.288c0,1.225-0.994,2.218-2.219,2.218l0,0c-1.226,0-2.218-0.993-2.218-2.218v-0.296
			c0-1.226,0.993-2.219,2.218-2.219l0,0c1.225,0,2.219,0.993,2.219,2.219V81.288z"/>
		<path fill="#EEEDED" d="M122.953,81.288c0,1.225-0.993,2.218-2.218,2.218l0,0c-1.225,0-2.219-0.993-2.219-2.218v-0.296
			c0-1.226,0.994-2.219,2.219-2.219l0,0c1.225,0,2.218,0.993,2.218,2.219V81.288z"/>
		<path fill="#EEEDED" d="M139.767,112.92c0,1.227-0.993,2.22-2.219,2.22l0,0c-1.225,0-2.218-0.993-2.218-2.22v-0.295
			c0-1.226,0.993-2.219,2.218-2.219l0,0c1.226,0,2.219,0.993,2.219,2.219V112.92z"/>
		<path fill="#EEEDED" d="M67.465,94.416c0,0.715-0.58,1.294-1.295,1.294l0,0c-0.716,0-1.295-0.579-1.295-1.294v-0.173
			c0-0.715,0.58-1.295,1.295-1.295l0,0c0.715,0,1.295,0.58,1.295,1.295V94.416z"/>
		<path fill="#EEEDED" d="M100.929,74.924c0,0.715-0.58,1.295-1.295,1.295l0,0c-0.715,0-1.295-0.581-1.295-1.295V74.75
			c0-0.715,0.58-1.294,1.295-1.294l0,0c0.715,0,1.295,0.579,1.295,1.294V74.924z"/>
		<path fill="#EEEDED" d="M134.678,94.416c0,0.715-0.58,1.294-1.295,1.294l0,0c-0.716,0-1.296-0.579-1.296-1.294v-0.173
			c0-0.715,0.58-1.295,1.296-1.295l0,0c0.715,0,1.295,0.58,1.295,1.295V94.416z"/>
		<g id="tick">
			<path fill="#4E717E" d="M99.883,136.746c-4.526,0-5.35-4.333-5.542-6.351c-0.5-5.267,1.027-43.963,5.542-43.963
			c5.059,0,5.457,38.699,4.982,43.963C104.685,132.404,103.867,136.746,99.883,136.746z"/>
			<path fill="#2B5153" d="M102,131.869c0,1.307-1.06,2.366-2.367,2.366l0,0c-1.307,0-2.366-1.06-2.366-2.366l0,0
			c0-1.307,1.06-2.366,2.366-2.366l0,0C100.94,129.503,102,130.562,102,131.869L102,131.869z"/>
		</g>
	</g>
</svg>
